name Walk6.mot
datacolumns 19
datarows 27
range 1.19500000 1.22100000
endheader

                time	   L_ground_force_vx	   L_ground_force_vy	   L_ground_force_vz	   L_ground_force_px	   L_ground_force_py	   L_ground_force_pz	   R_ground_force_vx	   R_ground_force_vy	   R_ground_force_vz	   R_ground_force_px	   R_ground_force_py	   R_ground_force_pz	   L_ground_torque_x	   L_ground_torque_y	   L_ground_torque_z	   R_ground_torque_x	   R_ground_torque_y	   R_ground_torque_z	
          1.19500000	          0.00000000	          0.00000000	          0.00000000	          0.00000000	          0.00000000	          0.00000000	          0.00000000	          0.00000000	          0.00000000	          0.00000000	          0.00000000	          0.00000000	          0.00000000	          0.00000000	          0.00000000	          0.00000000	          0.00000000	          0.00000000	
          1.19600000	          0.00000000	          0.00000000	          0.00000000	          0.00000000	          0.00000000	          0.00000000	          0.00000000	          0.00000000	          0.00000000	          0.00000000	          0.00000000	          0.00000000	          0.00000000	          0.00000000	          0.00000000	          0.00000000	          0.00000000	          0.00000000	
          1.19700000	          0.00000000	          0.00000000	          0.00000000	          0.00000000	          0.00000000	          0.00000000	          0.00000000	          0.00000000	          0.00000000	          0.00000000	          0.00000000	          0.00000000	          0.00000000	          0.00000000	          0.00000000	          0.00000000	          0.00000000	          0.00000000	
          1.19800000	          0.00000000	          0.00000000	          0.00000000	          0.00000000	          0.00000000	          0.00000000	          0.00000000	          0.00000000	          0.00000000	          0.00000000	          0.00000000	          0.00000000	          0.00000000	          0.00000000	          0.00000000	          0.00000000	          0.00000000	          0.00000000	
          1.19900000	          0.00000000	          0.00000000	          0.00000000	          0.00000000	          0.00000000	          0.00000000	          0.00000000	          0.00000000	          0.00000000	          0.00000000	          0.00000000	          0.00000000	          0.00000000	          0.00000000	          0.00000000	          0.00000000	          0.00000000	          0.00000000	
          1.20000000	          0.00000000	          0.00000000	          0.00000000	          0.00000000	          0.00000000	          0.00000000	          0.00000000	          0.00000000	          0.00000000	          0.00000000	          0.00000000	          0.00000000	          0.00000000	          0.00000000	          0.00000000	          0.00000000	          0.00000000	          0.00000000	
          1.20100000	          0.00000000	          0.00000000	          0.00000000	          0.00000000	          0.00000000	          0.00000000	         -3.43141484	         13.84129361	         -0.25688415	         -0.47968668	          0.00000000	         -0.04310154	          0.00000000	          0.00000000	          0.00000000	          0.00000000	         -0.04082576	          0.00000000	
          1.20200000	          0.00000000	          0.00000000	          0.00000000	          0.00000000	          0.00000000	          0.00000000	         -5.25149547	         25.24193322	         -0.51722735	         -0.48009604	          0.00000000	         -0.04338888	          0.00000000	          0.00000000	          0.00000000	          0.00000000	         -0.05926499	          0.00000000	
          1.20300000	          0.00000000	          0.00000000	          0.00000000	          0.00000000	          0.00000000	          0.00000000	         -7.29516631	         40.84559135	         -0.87941694	         -0.48016239	          0.00000000	         -0.04275627	          0.00000000	          0.00000000	          0.00000000	          0.00000000	         -0.06373649	          0.00000000	
          1.20400000	          0.00000000	          0.00000000	          0.00000000	          0.00000000	          0.00000000	          0.00000000	         -9.52011946	         61.50374451	         -1.36016521	         -0.47981776	          0.00000000	         -0.04192875	          0.00000000	          0.00000000	          0.00000000	          0.00000000	         -0.04930634	          0.00000000	
          1.20500000	          0.00000000	          0.00000000	          0.00000000	          0.00000000	          0.00000000	          0.00000000	        -11.79851610	         87.75106369	         -1.99844645	         -0.47912245	          0.00000000	         -0.04141813	          0.00000000	          0.00000000	          0.00000000	          0.00000000	         -0.01932245	          0.00000000	
          1.20600000	          0.00000000	          0.00000000	          0.00000000	          0.00000000	          0.00000000	          0.00000000	        -13.87451236	        119.14239970	         -2.85697683	         -0.47826783	          0.00000000	         -0.04123723	          0.00000000	          0.00000000	          0.00000000	          0.00000000	          0.01669291	          0.00000000	
          1.20700000	          0.00000000	          0.00000000	          0.00000000	          0.00000000	          0.00000000	          0.00000000	        -15.44514604	        153.84688502	         -4.00592742	         -0.47745543	          0.00000000	         -0.04117112	          0.00000000	          0.00000000	          0.00000000	          0.00000000	          0.04588062	          0.00000000	
          1.20800000	          0.00000000	          0.00000000	          0.00000000	          0.00000000	          0.00000000	          0.00000000	        -16.28923475	        188.81999188	         -5.49673790	         -0.47679119	          0.00000000	         -0.04109878	          0.00000000	          0.00000000	          0.00000000	          0.00000000	          0.05842948	          0.00000000	
          1.20900000	          0.00000000	          0.00000000	          0.00000000	          0.00000000	          0.00000000	          0.00000000	        -16.36303880	        220.58676066	         -7.33166249	         -0.47627452	          0.00000000	         -0.04103162	          0.00000000	          0.00000000	          0.00000000	          0.00000000	          0.05316127	          0.00000000	
          1.21000000	          0.00000000	          0.00000000	          0.00000000	          0.00000000	          0.00000000	          0.00000000	        -15.82072514	        246.21256289	         -9.44598461	         -0.47585787	          0.00000000	         -0.04101868	          0.00000000	          0.00000000	          0.00000000	          0.00000000	          0.03665717	          0.00000000	
          1.21100000	          0.00000000	          0.00000000	          0.00000000	          0.00000000	          0.00000000	          0.00000000	        -14.95466141	        263.97164499	        -11.71797485	         -0.47550340	          0.00000000	         -0.04107922	          0.00000000	          0.00000000	          0.00000000	          0.00000000	          0.01849986	          0.00000000	
          1.21200000	          0.00000000	          0.00000000	          0.00000000	          0.00000000	          0.00000000	          0.00000000	        -14.08257782	        273.53501675	        -14.00053296	         -0.47519586	          0.00000000	         -0.04116390	          0.00000000	          0.00000000	          0.00000000	          0.00000000	          0.00739673	          0.00000000	
          1.21300000	          0.00000000	          0.00000000	          0.00000000	          0.00000000	          0.00000000	          0.00000000	        -13.44788185	        275.76852557	        -16.15327388	         -0.47492337	          0.00000000	         -0.04117652	          0.00000000	          0.00000000	          0.00000000	          0.00000000	          0.00769829	          0.00000000	
          1.21400000	          0.00000000	          0.00000000	          0.00000000	          0.00000000	          0.00000000	          0.00000000	        -13.18244428	        272.32587854	        -18.05959940	         -0.47466881	          0.00000000	         -0.04106879	          0.00000000	          0.00000000	          0.00000000	          0.00000000	          0.01674831	          0.00000000	
          1.21500000	          0.00000000	          0.00000000	          0.00000000	          0.00000000	          0.00000000	          0.00000000	        -13.31759757	        265.22480954	        -19.63765626	         -0.47441718	          0.00000000	         -0.04087927	          0.00000000	          0.00000000	          0.00000000	          0.00000000	          0.02874084	          0.00000000	
          1.21600000	          0.00000000	          0.00000000	          0.00000000	          0.00000000	          0.00000000	          0.00000000	        -13.80869235	        256.51115740	        -20.85580788	         -0.47415284	          0.00000000	         -0.04065728	          0.00000000	          0.00000000	          0.00000000	          0.00000000	          0.04047483	          0.00000000	
          1.21700000	          0.00000000	          0.00000000	          0.00000000	          0.00000000	          0.00000000	          0.00000000	        -14.56053369	        247.98789503	        -21.74147153	         -0.47385695	          0.00000000	         -0.04040440	          0.00000000	          0.00000000	          0.00000000	          0.00000000	          0.05090162	          0.00000000	
          1.21800000	          0.00000000	          0.00000000	          0.00000000	          0.00000000	          0.00000000	          0.00000000	        -15.46023557	        240.99202304	        -22.36659215	         -0.47350533	          0.00000000	         -0.04012260	          0.00000000	          0.00000000	          0.00000000	          0.00000000	          0.05931389	          0.00000000	
          1.21900000	          0.00000000	          0.00000000	          0.00000000	          0.00000000	          0.00000000	          0.00000000	        -16.41461113	        236.28442481	        -22.81247773	         -0.47306430	          0.00000000	         -0.03986455	          0.00000000	          0.00000000	          0.00000000	          0.00000000	          0.06455698	          0.00000000	
          1.22000000	          0.00000000	          0.00000000	          0.00000000	          0.00000000	          0.00000000	          0.00000000	        -17.37017566	        234.09675171	        -23.13804735	         -0.47251715	          0.00000000	         -0.03970565	          0.00000000	          0.00000000	          0.00000000	          0.00000000	          0.06362620	          0.00000000	
          1.22100000	          0.00000000	          0.00000000	          0.00000000	          0.00000000	          0.00000000	          0.00000000	        -18.30957896	        234.30158704	        -23.37000254	         -0.47188411	          0.00000000	         -0.03969734	          0.00000000	          0.00000000	          0.00000000	          0.00000000	          0.05359829	          0.00000000	
